<svg width="44" height="31" viewBox="0 0 44 31" fill="none" xmlns="http://www.w3.org/2000/svg">
<g clip-path="url(#clip0_84_111)">
<path fill-rule="evenodd" clip-rule="evenodd" d="M43.8269 31H35.2435V20.1515C35.2435 17.1755 33.426 15.5151 30.1665 15.5151C26.6194 15.5151 24.5144 17.2453 24.5144 20.1515V31H15.931V10.85H24.5144V13.116C24.5144 13.116 27.2074 9.70264 33.2758 9.70264C39.3464 9.70264 43.8269 12.3785 43.8269 17.9151V31ZM6.15029 7.62739C3.25556 7.62739 0.910156 5.91939 0.910156 3.81294C0.910156 1.70804 3.25556 0 6.15029 0C9.04288 0 11.3883 1.70804 11.3883 3.81294C11.3904 5.91939 9.04288 7.62739 6.15029 7.62739ZM0.910156 31H11.6393V10.85H0.910156V31Z" fill="white"/>
</g>
<defs>
<clipPath id="clip0_84_111">
<rect width="42.9167" height="31" fill="white" transform="translate(0.910156)"/>
</clipPath>
</defs>
</svg>
