<svg width="230" height="198" viewBox="0 0 230 198" fill="none" xmlns="http://www.w3.org/2000/svg">
<g filter="url(#filter0_d_123_380)">
<path d="M113.772 0L202.462 78.3009L23.6377 78.3009L113.772 0Z" fill="#CA3CFF"/>
<path d="M114.591 154.715L15.3521 76.1781L213.83 76.1781L114.591 154.715Z" fill="#CA3CFF"/>
<path d="M115.105 56.603L135.576 76.4141H94.6341L115.105 56.603Z" fill="#CA3CFF"/>
<path d="M115.106 108.489L78.6149 75.9425H151.598L115.106 108.489Z" fill="#CA3CFF"/>
<path d="M113.772 0L202.462 78.3009L23.6377 78.3009L113.772 0Z" fill="#CA3CFF"/>
<path d="M112.651 19.9658L189.185 92.841L35.8457 92.841L112.651 19.9658Z" fill="#792499"/>
<path d="M114.591 154.715L15.3521 76.1781L213.83 76.1781L114.591 154.715Z" fill="#CA3CFF"/>
<path d="M114.592 135.847L35.9708 75.4706L193.213 75.4706L114.592 135.847Z" fill="#792499"/>
<path d="M115.105 56.603L135.576 76.4141H94.6341L115.105 56.603Z" fill="#CA3CFF"/>
<path d="M115.106 108.489L78.6149 75.9425H151.598L115.106 108.489Z" fill="#CA3CFF"/>
<path d="M170.19 189.225H159.87V187.145L163.23 186.385V163.545L159.87 162.745V160.665H170.19V162.745L166.83 163.545V186.385L170.19 187.145V189.225ZM193.624 189.225L190.184 180.385H178.864L175.464 189.225H171.824L182.984 160.545H186.224L197.344 189.225H193.624ZM185.904 168.545C185.824 168.331 185.691 167.945 185.504 167.385C185.318 166.825 185.131 166.251 184.944 165.665C184.784 165.051 184.651 164.585 184.544 164.265C184.411 164.798 184.264 165.345 184.104 165.905C183.971 166.438 183.824 166.931 183.664 167.385C183.531 167.838 183.411 168.225 183.304 168.545L180.064 177.185H189.104L185.904 168.545Z" fill="#CA3CFF"/>
<path d="M133.267 178.378C131.507 181.285 129.294 184.485 126.627 187.978L126.667 188.378C127.627 188.752 128.614 188.992 129.627 189.098L130.067 188.818C132.254 185.538 134.214 182.338 135.947 179.218H140.627V180.738L140.467 188.738H143.707L143.507 181.018L143.707 163.098L135.867 163.058C133.361 163.058 131.427 163.698 130.067 164.978C128.681 166.232 127.987 168.032 127.987 170.378C127.987 172.138 128.454 173.725 129.387 175.138C130.294 176.525 131.587 177.605 133.267 178.378ZM140.587 176.498L135.787 176.618C132.801 175.765 131.307 173.778 131.307 170.658C131.307 169.032 131.747 167.818 132.627 167.018C133.507 166.192 134.827 165.752 136.587 165.698L140.467 165.818L140.587 176.498Z" fill="white"/>
<path d="M33.6812 165.948L33.6012 174.868L37.9212 174.948L42.0812 174.828L42.3212 175.148L42.0412 177.588L37.6012 177.468L33.5612 177.508L33.5212 180.828L33.6812 188.828H30.4412L30.6412 181.108L30.4412 163.188H44.0812L44.3212 163.508L44.0412 166.068L38.1612 165.868L33.6812 165.948ZM65.2893 188.828H62.0093L61.4093 186.268L59.9693 181.868L54.2093 181.748L49.0093 181.868L47.4493 186.108L46.8093 188.828H43.6093L53.0093 163.188H56.7293L65.2893 188.828ZM59.0893 179.148L54.9293 166.508H54.6493L50.0093 179.148L54.4893 179.228L59.0893 179.148ZM76.8543 162.988C78.6943 162.988 80.601 163.388 82.5743 164.188L82.0543 167.268L81.4943 167.428C80.721 166.841 79.8943 166.388 79.0143 166.068C78.161 165.748 77.3076 165.588 76.4543 165.588C75.4677 165.588 74.601 165.788 73.8543 166.188C73.1343 166.588 72.5743 167.108 72.1743 167.748C71.801 168.388 71.6143 169.055 71.6143 169.748C71.6143 170.468 71.8277 171.108 72.2543 171.668C72.7077 172.201 73.2677 172.668 73.9343 173.068C74.601 173.468 75.5077 173.948 76.6543 174.508C78.0943 175.175 79.2543 175.801 80.1343 176.388C81.0143 176.948 81.761 177.668 82.3743 178.548C83.0143 179.428 83.3343 180.495 83.3343 181.748C83.3343 183.081 82.9743 184.308 82.2543 185.428C81.5343 186.548 80.521 187.441 79.2143 188.108C77.9077 188.775 76.4143 189.108 74.7343 189.108C73.6143 189.108 72.441 188.961 71.2143 188.668C70.0143 188.348 68.8943 187.895 67.8543 187.308L68.2543 184.028L68.6943 183.828C69.6276 184.735 70.6543 185.415 71.7743 185.868C72.921 186.295 74.0143 186.508 75.0543 186.508C76.0677 186.508 76.961 186.308 77.7343 185.908C78.5343 185.508 79.1343 184.975 79.5343 184.308C79.961 183.641 80.1743 182.935 80.1743 182.188C80.1743 181.068 79.7477 180.175 78.8943 179.508C78.041 178.815 76.7477 178.068 75.0143 177.268C73.601 176.575 72.4677 175.961 71.6143 175.428C70.761 174.868 70.0276 174.161 69.4143 173.308C68.801 172.428 68.4943 171.361 68.4943 170.108C68.4943 168.801 68.841 167.601 69.5343 166.508C70.2543 165.415 71.241 164.561 72.4943 163.948C73.7743 163.308 75.2277 162.988 76.8543 162.988ZM103.177 163.508L102.937 165.988L98.4565 165.748H95.8565L95.7365 180.828L95.8565 188.828H92.6165L92.8565 181.108L92.6565 165.748H90.0565L85.4965 165.988L85.2965 165.668L85.5365 163.188H102.937L103.177 163.508ZM122.386 186.348L122.146 188.828H107.746L107.946 181.108L107.746 163.188H122.186L122.346 163.508L122.106 165.988L116.066 165.868L110.986 165.948L110.906 174.348L115.706 174.428L119.946 174.308L120.186 174.588L119.906 177.068L115.426 176.988L110.866 177.028L110.826 180.828L110.946 186.148L116.026 186.188L122.186 186.028L122.386 186.348Z" fill="white"/>
</g>
<defs>
<filter id="filter0_d_123_380" x="11.3521" y="0" width="206.478" height="197.225" filterUnits="userSpaceOnUse" color-interpolation-filters="sRGB">
<feFlood flood-opacity="0" result="BackgroundImageFix"/>
<feColorMatrix in="SourceAlpha" type="matrix" values="0 0 0 0 0 0 0 0 0 0 0 0 0 0 0 0 0 0 127 0" result="hardAlpha"/>
<feOffset dy="4"/>
<feGaussianBlur stdDeviation="2"/>
<feComposite in2="hardAlpha" operator="out"/>
<feColorMatrix type="matrix" values="0 0 0 0 0 0 0 0 0 0 0 0 0 0 0 0 0 0 0.25 0"/>
<feBlend mode="normal" in2="BackgroundImageFix" result="effect1_dropShadow_123_380"/>
<feBlend mode="normal" in="SourceGraphic" in2="effect1_dropShadow_123_380" result="shape"/>
</filter>
</defs>
</svg>
