<svg width="26" height="21" viewBox="0 0 26 21" fill="none" xmlns="http://www.w3.org/2000/svg">
<path d="M19.5853 8.66139C18.8049 8.01514 17.8761 7.50287 16.8529 7.15436C15.8296 6.80586 14.7322 6.62809 13.6246 6.63139C12.1439 6.63258 10.6895 6.95357 9.40713 7.5622C8.12477 8.17083 7.05945 9.04575 6.31783 10.0993C5.57622 11.1529 5.18437 12.3482 5.1815 13.5654C5.17864 14.7827 5.56486 15.9792 6.30151 17.0352L5.10938 20.6314L9.57987 19.6689C10.8143 20.2335 12.2014 20.5344 13.614 20.5439C15.8595 20.544 18.0142 19.8149 19.6089 18.5153C21.2037 17.2158 22.1095 15.4511 22.1292 13.6052C22.1217 12.684 21.8931 11.7732 21.4566 10.9249C21.0201 10.0765 20.3841 9.30732 19.5853 8.66139ZM13.6246 19.3452C12.3662 19.3459 11.1307 19.0678 10.0482 18.5402L9.79275 18.4089L7.14239 18.9864L7.84489 16.8602L7.67459 16.6414C6.76905 15.4398 6.43109 14.0068 6.72473 12.614C7.01838 11.2212 7.92324 9.96528 9.26789 9.08422C10.6126 8.20315 12.3036 7.7581 14.0207 7.83337C15.7378 7.90864 17.3617 8.49901 18.5847 9.49264C19.9216 10.5673 20.6869 12.0332 20.7135 13.5702C20.6967 15.1066 19.9424 16.5753 18.6147 17.6569C17.2872 18.7384 15.4937 19.3452 13.6246 19.3452ZM17.4671 15.0227C17.2542 14.9352 16.2217 14.5152 16.0302 14.4627C15.8386 14.4102 15.6895 14.3752 15.5512 14.5502C15.343 14.7847 15.119 15.0096 14.8806 15.2239C14.7635 15.3464 14.6358 15.3552 14.4229 15.2239C13.2092 14.8296 12.198 14.1034 11.5597 13.1677C11.3361 12.8614 11.7725 12.8789 12.177 12.2227C12.2069 12.1753 12.2225 12.1228 12.2225 12.0695C12.2225 12.0162 12.2069 11.9637 12.177 11.9164C12.177 11.8289 11.698 10.9714 11.5277 10.6301C11.3574 10.2889 11.1871 10.3414 11.0487 10.3326H10.6336C10.5261 10.334 10.4201 10.3542 10.3228 10.3919C10.2255 10.4297 10.1392 10.484 10.0695 10.5514C9.83066 10.7423 9.64438 10.9731 9.5232 11.2282C9.40202 11.4832 9.34875 11.7567 9.36699 12.0302C9.43373 12.6847 9.7336 13.3086 10.2292 13.8239C11.1362 14.9402 12.3794 15.8445 13.8375 16.4489C14.6023 16.8159 15.491 16.9694 16.3708 16.8864C16.6637 16.8386 16.9412 16.7407 17.185 16.599C17.429 16.4573 17.6339 16.275 17.7864 16.0639C17.9278 15.8063 17.9723 15.5199 17.9141 15.2414C17.8183 15.1539 17.68 15.1102 17.4671 15.0227Z" fill="white"/>
</svg>
